#!OML:ASF I:\Actors\actors\Patient Classification 1\Patient 1\Session 1\Subject1.ASF
:FULLY-SPECIFIED
:DEGREES
2279
root -0.00354246 17.4557 9.1387 8.25249 0.0956315 -8.60369
lowerback -5.28591 1.52115 6.7087
upperback -11.4438 2.1646 1.29167
thorax -9.01613 0.568794 -2.41184
lowerneck -9.9268 -6.08967 -4.99912
upperneck 23.3807 -9.50792 7.5081
head 9.61712 -4.12131 2.3355
rclavicle -1.22253e-014 4.05521e-014
rhumerus -49.2058 -15.4804 -74.7253
rradius 27.7604
rwrist 33.0303
rhand -13.6271 -28.0271
rfingers 7.12502
rthumb 12.4886 1382.37
lclavicle -1.22253e-014 4.05521e-014
lhumerus -51.1427 8.67718 81.3714
lradius 37.2479
lwrist 2.12474
lhand -37.8113 -35.0823
lfingers 7.12502
lthumb -10.8572 -5.38297
rfemur 0.744643 22.4907 26.5458
rtibia 2.60673
rfoot -15.3219 -28.0182
rtoes 4.43397
lfemur 11.7849 -47.156 -16.9874
ltibia -5.51805
lfoot -27.3573 57.3465
ltoes 13.7087
2280
root -0.00441276 17.4574 9.14169 8.31456 0.125484 -8.64579
lowerback -5.21381 1.51104 6.70985
upperback -11.4316 2.15736 1.29681
thorax -9.04519 0.564645 -2.40873
lowerneck -9.90923 -6.09757 -4.94162
upperneck 23.2132 -9.51792 7.51847
head 9.553 -4.12391 2.32833
rclavicle 1.80894e-014 -6.36111e-015
rhumerus -50.0845 -17.3681 -72.8056
rradius 26.9043
rwrist 34.2012
rhand -13.138 -28.1639
rfingers 7.12502
rthumb 12.9602 1382.26
lclavicle 1.80894e-014 -6.36111e-015
lhumerus -51.4439 9.6717 80.2848
lradius 36.139
lwrist 1.10393
lhand -37.2873 -35.1303
lfingers 7.12502
lthumb -10.3518 -5.4051
rfemur 0.693938 22.5536 26.5853
rtibia 2.59403
rfoot -15.3347 -28.0898
rtoes 4.3864
lfemur 11.6846 -47.1721 -16.8469
ltibia -5.52844
lfoot -27.1544 57.3778
ltoes 13.4998
2281
root -0.00425343 17.4575 9.14425 8.33154 0.127354 -8.65222
lowerback -5.08631 1.5149 6.68401
upperback -11.4013 2.1721 1.29324
thorax -9.08364 0.573211 -2.4018
lowerneck -9.88709 -6.12085 -4.97287
upperneck 23.0549 -9.54895 7.59111
head 9.50085 -4.13744 2.35487
rclavicle 6.55989e-015 2.46493e-014
rhumerus -50.9888 -19.0655 -70.9607
rradius 26.1748
rwrist 35.3113
rhand -12.5048 -28.1886
rfingers 7.12502
rthumb 13.5705 1382.27
lclavicle 6.55989e-015 2.46493e-014
lhumerus -51.7808 10.5848 79.2798
lradius 35.1839
lwrist 0.115858
lhand -36.6192 -34.9389
lfingers 7.12502
lthumb -9.70726 -5.18263
rfemur 0.702448 22.6156 26.5987
rtibia 2.57213
rfoot -15.357 -28.1393
rtoes 4.38454
lfemur 11.677 -47.1914 -16.8317
ltibia -5.53509
lfoot -27.2639 57.3872
ltoes 13.6547
2282
root -0.004277 17.4567 9.14691 8.3502 0.160579 -8.67191
lowerback -4.98547 1.50342 6.66362
upperback -11.3649 2.16582 1.32205
thorax -9.1029 0.573429 -2.36219
lowerneck -9.88094 -6.1231 -5.13599
upperneck 22.9506 -9.55873 7.7841
head 9.48247 -4.13812 2.44708
rclavicle -3.67752e-015 -9.54166e-015
rhumerus -51.7692 -20.295 -69.4153
rradius 25.5552
rwrist 36.0207
rhand -11.6081 -28.5497
rfingers 7.12502
rthumb 14.4347 1381.97
lclavicle -3.67752e-015 -9.54166e-015
lhumerus -52.1719 11.571 78.2878
lradius 34.3419
lwrist -0.863611
lhand -36.2027 -34.5729
lfingers 7.12502
lthumb -9.30537 -4.79831
rfemur 0.714894 22.6566 26.6371
rtibia 2.55674
rfoot -15.4137 -28.2056
rtoes 4.49872
lfemur 11.6168 -47.1155 -16.7412
ltibia -5.55716
lfoot -27.2095 57.3026
ltoes 13.6234
2283
root -0.00482962 17.4566 9.14961 8.39712 0.21182 -8.68912
lowerback -4.92824 1.49159 6.64747
upperback -11.327 2.15517 1.35126
thorax -9.09526 0.572106 -2.32322
lowerneck -9.92732 -6.12187 -5.24501
upperneck 22.9038 -9.55865 7.90249
head 9.48678 -4.13448 2.50447
rclavicle 1.53064e-014 -1.19271e-014
rhumerus -52.4036 -21.1224 -68.2684
rradius 25.2574
rwrist 35.7128
rhand -10.0253 -29.3931
rfingers 7.12502
rthumb 15.9593 1381.24
lclavicle 1.53064e-014 -1.19271e-014
lhumerus -52.5254 12.6396 77.239
lradius 33.4659
lwrist -1.84544
lhand -35.9522 -34.3606
lfingers 7.12502
lthumb -9.06369 -4.57536
rfemur 0.688765 22.6566 26.6545
rtibia 2.53292
rfoot -15.4324 -28.2567
rtoes 4.52103
lfemur 11.5197 -47.0889 -16.6335
ltibia -5.5668
lfoot -26.9647 57.2769
ltoes 13.2882
